<?xml version="1.0" standalone="no"?>
<!DOCTYPE svg PUBLIC "-//W3C//DTD SVG 20010904//EN"
 "http://www.w3.org/TR/2001/REC-SVG-20010904/DTD/svg10.dtd">
<svg version="1.0" xmlns="http://www.w3.org/2000/svg"
 width="500.000000pt" height="500.000000pt" viewBox="0 0 500.000000 500.000000"
 preserveAspectRatio="xMidYMid meet">
<metadata>
Created by potrace 1.11, written by Peter Selinger 2001-2013
</metadata>
<g transform="translate(0.000000,500.000000) scale(0.100000,-0.100000)"
fill="#000000" stroke="none">
<path d="M420 3708 c-31 -11 -187 -168 -198 -199 -5 -13 -6 -35 -2 -49 4 -14
248 -265 565 -582 l558 -556 -558 -556 c-349 -349 -559 -567 -564 -584 -12
-41 -1 -59 92 -154 87 -89 121 -108 164 -92 34 13 1361 1342 1365 1368 2 11
-1 32 -7 46 -16 39 -1340 1357 -1368 1362 -13 3 -34 1 -47 -4z"/>
<path d="M2102 1070 c-85 -5 -95 -7 -112 -30 -21 -27 -21 -29 -22 -163 0 -115
11 -142 65 -155 28 -7 495 -10 1394 -9 l1352 2 23 23 c21 21 23 33 26 150 3
127 3 128 -24 155 -26 26 -30 27 -148 27 -1470 4 -2480 4 -2554 0z"/>
</g>
</svg>
